<svg width="195" height="57" viewBox="0 0 195 57" fill="none" xmlns="http://www.w3.org/2000/svg">
<g clip-path="url(#clip0_69_187)">
<path fill-rule="evenodd" clip-rule="evenodd" d="M19.7553 27.6395L15.4963 31.6387C16.3173 33.1067 16.7278 34.6253 16.7792 36.0934C16.7792 40.8012 13.136 43.1804 5.90093 43.1804H5.07993L8.31261 14.6298C8.82574 10.1751 9.69804 6.98591 10.9295 5.11291C12.161 3.23991 14.0596 2.2781 16.5226 2.2781C20.525 2.2781 22.988 4.45483 23.8603 8.85891L28.0166 5.72037C26.2206 1.92375 23.3985 0.00012207 19.4474 0.00012207C15.2911 0.00012207 11.6992 1.56939 8.77442 4.65732C6.10618 7.39088 4.46418 11.795 3.74581 17.8696L1.43675 38.3713C1.2315 39.7381 0.769686 42.3705 0 46.3189H2.0525C7.54292 46.3189 12.0071 45.0028 15.3424 42.3198C18.6777 39.6369 20.371 36.0934 20.371 31.6387C20.371 30.3225 20.1658 28.9557 19.7553 27.6395ZM15.8042 29.3607L20.0632 25.3616C19.2422 23.8429 18.8317 22.3749 18.729 20.8563C18.729 16.1484 22.3722 13.7692 29.6073 13.7692H30.4283L27.1956 42.3705C26.6825 46.8252 25.8101 50.0143 24.5786 51.8873C23.3471 53.7603 21.4486 54.7221 18.9856 54.7221C14.9832 54.7221 12.5202 52.5454 11.6479 48.1413L7.49161 51.2799C9.28755 55.0765 12.1097 57.0001 16.0608 57.0001C20.2171 57.0001 23.809 55.4309 26.7851 52.3429C29.4533 49.6094 31.0953 45.2053 31.8137 39.1307L34.1228 18.6289C34.328 17.2621 34.7898 14.6298 35.5595 10.6813H33.507C28.0166 10.6813 23.5524 11.9975 20.2171 14.6804C16.8818 17.3634 15.1885 20.9069 15.1885 25.3616C15.1885 26.6777 15.3937 28.0445 15.8042 29.3607Z" fill="#897B62"/>
<path fill-rule="evenodd" clip-rule="evenodd" d="M85.6556 29.8539L87.8222 27.7876C87.3889 27.0039 87.1722 26.1489 87.0278 25.2226C87.0278 22.5151 89.05 21.1614 93.0945 21.1614C94.6834 21.1614 96.2 21.3039 97.6445 21.5889C96.3445 22.3014 95.3334 23.1564 94.5389 24.1539C93.8167 25.1514 93.0222 26.7901 92.1556 29.0701L91.7222 30.2101C90.8556 32.5614 90.2056 34.2001 89.7722 34.9839C89.3389 35.8389 88.8333 36.4801 88.1833 36.9076L86.8111 36.8364L85.0056 38.4751L90.4945 38.6889L92.0111 37.1214L89.1945 36.9789C90.6389 36.1239 91.7945 34.6276 92.6611 32.4901H97.2834L98.2945 31.7776C98.4389 34.2714 98.9445 36.6939 99.6667 38.9739L103.061 37.5489L103.711 37.2639C104.072 37.1214 104.217 36.9076 104.217 36.6939C104.217 36.6226 104.217 36.4801 104.144 36.3376C103.567 36.6226 102.989 36.7651 102.556 36.7651C102.122 36.7651 101.761 36.6226 101.617 36.4089C101.472 36.1239 101.328 35.6964 101.111 34.9126C100.606 32.9176 100.389 30.9939 100.389 29.1414L100.317 27.5739V26.8614C100.317 23.5126 100.678 21.2326 101.4 20.1639H100.461C100.461 20.1639 99.7389 20.0926 98.2945 20.0214C97.7889 19.9501 97.1389 19.9501 96.4889 19.9501C92.5167 19.9501 89.7 20.5201 88.0389 21.6601C86.0889 23.0139 85.0778 24.8664 85.0778 27.0751C85.0778 27.9301 85.2945 28.8564 85.6556 29.8539ZM98.2879 30.8514C98.1478 29.3162 98.0778 28.0575 98.0778 27.0751V25.8639L98.2223 24.2964C98.2945 23.2276 98.3667 22.3726 98.5111 21.8026C96.7056 22.8714 95.2611 25.0801 94.1056 28.4289C93.9254 28.9267 93.7991 29.3003 93.7089 29.5674L93.7087 29.5679L93.7085 29.5684L93.7084 29.5687L93.7084 29.5688C93.6181 29.836 93.5639 29.9964 93.5278 30.0676L93.2389 30.8514H98.2879ZM54.1667 27.7876L51.9278 29.9251C51.7111 29.2126 51.6389 28.5001 51.6389 27.8589C51.6389 25.5076 52.5056 23.6551 54.2389 22.2301C55.9722 20.8051 58.3556 20.0926 61.2445 20.0926H62.3278C61.8945 22.1589 61.6778 23.5839 61.6056 24.2964L60.3778 34.9839C60.0167 38.1901 59.15 40.4701 57.7778 41.9664C56.1889 43.6051 54.3111 44.3889 52.1445 44.3889C50.05 44.3889 48.6056 43.3914 47.6667 41.3964L49.8334 39.7576C50.2667 42.0376 51.5667 43.2489 53.6611 43.2489C54.9611 43.2489 55.9722 42.7501 56.6222 41.7526C57.2722 40.7551 57.7056 39.1164 57.9945 36.7651L59.6556 21.7314H59.2222C55.3945 21.7314 53.5167 22.9426 53.5167 25.4364C53.5167 26.2201 53.7334 27.0039 54.1667 27.7876ZM66.95 27.7876L64.7111 29.9251C64.4945 29.2126 64.4222 28.5001 64.4222 27.8589C64.4222 25.5076 65.2889 23.6551 67.0222 22.2301C68.7556 20.8051 71.1389 20.0926 74.0278 20.0926H75.1111C74.6778 22.1589 74.4611 23.5839 74.3889 24.2964L73.1611 34.9839C72.8 38.1901 71.9334 40.4701 70.5611 41.9664C68.9722 43.6051 67.0945 44.3889 64.9278 44.3889C62.8334 44.3889 61.3889 43.3914 60.45 41.3964L62.6167 39.7576C63.05 42.0376 64.35 43.2489 66.4445 43.2489C67.7445 43.2489 68.7556 42.7501 69.4056 41.7526C70.0556 40.7551 70.4889 39.1164 70.7778 36.7651L72.4389 21.7314H72.0056C68.1778 21.7314 66.3 22.9426 66.3 25.4364C66.3 26.2201 66.5167 27.0039 66.95 27.7876ZM114.617 25.6501L113.028 27.5026C112.306 27.2176 111.583 27.0751 110.933 27.0751C109.706 27.0751 108.767 27.5739 108.117 28.5714C107.394 29.5689 107.106 30.9226 107.106 32.7039C107.106 33.9151 107.322 34.9126 107.828 35.6964C108.333 36.4801 108.983 36.8364 109.778 36.8364C111.15 36.8364 112.233 35.9814 112.956 34.2001C113.172 34.4139 113.244 34.6276 113.244 34.8414C113.244 35.6251 112.667 36.4089 111.439 37.3351C110.283 38.2614 109.2 38.6889 108.189 38.6889C107.25 38.6889 106.456 38.3326 105.878 37.5489C105.3 36.7651 104.939 35.8389 104.939 34.6276C104.939 32.2764 105.733 30.1389 107.322 28.2151C108.911 26.2914 110.717 25.3651 112.667 25.3651C113.533 25.2939 114.111 25.4364 114.617 25.6501ZM123.789 27.5026L125.378 25.6501C124.872 25.4364 124.294 25.2939 123.428 25.3651C121.478 25.3651 119.672 26.2914 118.083 28.2151C116.494 30.1389 115.7 32.2764 115.7 34.6276C115.7 35.8389 116.061 36.7651 116.639 37.5489C117.217 38.3326 118.011 38.6889 118.95 38.6889C119.961 38.6889 121.044 38.2614 122.2 37.3351C123.428 36.4089 124.006 35.6251 124.006 34.8414C124.006 34.6276 123.933 34.4139 123.717 34.2001C122.994 35.9814 121.911 36.8364 120.539 36.8364C119.744 36.8364 119.094 36.4801 118.589 35.6964C118.083 34.9126 117.867 33.9151 117.867 32.7039C117.867 30.9226 118.156 29.5689 118.878 28.5714C119.528 27.5739 120.467 27.0751 121.694 27.0751C122.344 27.0751 123.067 27.2176 123.789 27.5026ZM134.911 33.9864C135.128 34.1289 135.272 34.3426 135.272 34.5564C135.272 34.8414 134.983 35.3401 134.406 35.9814C132.817 37.7626 131.3 38.6889 129.783 38.6889C128.844 38.6889 128.05 38.3326 127.472 37.6201C126.894 36.9076 126.533 35.9814 126.533 34.8414C126.533 32.7751 127.328 30.7089 128.917 28.5714C130.506 26.4339 132.022 25.4364 133.611 25.4364C134.694 25.4364 135.272 26.0064 135.272 27.2176C135.272 28.5714 134.622 29.8539 133.322 31.1364C132.022 32.4189 130.433 33.2739 128.556 33.7726C128.772 35.9101 129.639 37.0501 131.156 37.0501C132.672 36.8364 133.972 35.9101 134.911 33.9864ZM128.556 31.9914C128.616 32.0062 128.673 32.0211 128.728 32.0353C128.935 32.0893 129.106 32.1339 129.278 32.1339C130.433 32.1339 131.372 31.7776 132.239 31.1364C133.106 30.4239 133.539 29.6401 133.539 28.7139C133.539 27.6451 132.961 27.1464 131.878 27.1464C131.083 27.1464 130.361 27.5739 129.711 28.5001C129.133 29.3551 128.772 30.5664 128.556 31.9914ZM138.017 36.4089L136.139 37.9051C137.078 38.4039 138.017 38.6176 138.883 38.6889C140.328 38.6889 141.628 38.2614 142.711 37.4064C143.794 36.5514 144.372 35.5539 144.372 34.4139C144.372 33.6301 143.722 32.5614 142.494 31.2789L141.628 30.3526C140.544 29.2126 139.967 28.3576 139.967 27.7876C139.967 27.0039 140.472 26.5764 141.483 26.5764C142.35 26.5764 143.072 26.8614 143.794 27.3601L145.456 25.8639C144.589 25.5789 143.794 25.4364 143.072 25.4364C141.7 25.4364 140.617 25.7926 139.678 26.5051C138.739 27.2176 138.306 28.0726 138.306 29.1414C138.306 29.8539 138.883 30.7801 140.039 31.9914L140.833 32.7751C142.061 34.0576 142.639 34.9839 142.639 35.6964C142.639 36.9076 141.989 37.5489 140.689 37.5489C139.606 37.5489 138.739 37.1926 138.017 36.4089ZM146.178 37.9051L148.056 36.4089C148.778 37.1926 149.644 37.5489 150.728 37.5489C152.028 37.5489 152.678 36.9076 152.678 35.6964C152.678 34.9839 152.1 34.0576 150.872 32.7751L150.078 31.9914C148.922 30.7801 148.344 29.8539 148.344 29.1414C148.344 28.0726 148.778 27.2176 149.717 26.5051C150.656 25.7926 151.739 25.4364 153.111 25.4364C153.833 25.4364 154.628 25.5789 155.494 25.8639L153.833 27.3601C153.111 26.8614 152.389 26.5764 151.522 26.5764C150.511 26.5764 150.006 27.0039 150.006 27.7876C150.006 28.3576 150.583 29.2126 151.667 30.3526L152.533 31.2789C153.761 32.5614 154.411 33.6301 154.411 34.4139C154.411 35.5539 153.833 36.5514 152.75 37.4064C151.667 38.2614 150.367 38.6889 148.922 38.6889C147.983 38.6176 147.044 38.4039 146.178 37.9051ZM156.939 34.5564C156.939 37.2639 157.95 38.6176 160.044 38.6176C161.778 38.6176 163.511 37.6201 165.028 35.6251C166.617 33.6301 167.411 31.5639 167.411 29.3551C167.411 26.6476 166.4 25.2939 164.306 25.2939C162.572 25.2939 160.911 26.2914 159.322 28.2864C157.733 30.2814 156.939 32.4189 156.939 34.5564ZM164.378 35.4114C163.656 36.5514 162.789 37.1214 161.706 37.1214C159.972 37.1214 159.033 35.6964 159.106 32.9176C159.106 31.1364 159.467 29.7114 160.189 28.5714C160.839 27.4314 161.778 26.8614 162.789 26.8614C164.594 26.8614 165.461 28.2151 165.461 31.0651C165.461 32.8464 165.1 34.2714 164.378 35.4114ZM173.55 30.9939C175.572 27.2176 177.594 25.2939 179.544 25.2939C180.05 25.2939 180.556 25.4364 181.061 25.6501L179.111 27.7164C178.822 27.5739 178.461 27.5026 177.956 27.5026C177.017 27.5026 176.006 28.2864 174.922 29.7826C173.839 31.2789 173.261 32.9176 173.044 34.5564L172.683 37.8339L170.661 38.5464L170.733 38.1189L170.806 37.2639L170.95 36.4089L171.672 29.9964L171.744 29.2839C171.817 28.7852 171.817 28.2865 171.817 28.0015V28.0014C171.817 27.4314 171.672 27.1464 171.383 27.1464C170.661 27.1464 169.939 27.9301 169.217 29.4264C169 29.2839 168.856 29.0701 168.856 28.9276C168.856 28.3576 169.361 27.6451 170.372 26.7189C171.383 25.7926 172.178 25.3651 172.756 25.3651C173.55 25.3651 173.911 25.8639 173.911 26.8614C173.911 27.0751 173.911 27.4314 173.839 27.8589L173.767 28.7851L173.622 29.9251L173.55 30.9939ZM187.922 36.9789C188.933 35.9101 189.872 34.4851 190.811 32.8464L189.439 39.5439C188.789 42.8214 187.995 45.0301 187.056 46.2414C186.117 47.4526 184.672 48.0939 182.795 48.0939C181.856 48.0939 180.989 47.8801 180.122 47.5239L178.461 49.3764C179.256 49.6614 179.906 49.8039 180.556 49.8039C183.517 49.8039 186.189 48.5214 188.428 46.0276C189.945 44.3176 191.028 41.6814 191.75 38.1189L193.556 29.0701C193.844 27.4314 194.206 26.2201 194.495 25.4364L192.039 26.2914L191.533 29.0701C191.245 30.6376 190.522 32.3476 189.439 33.9864C188.356 35.6251 187.417 36.4801 186.695 36.4801C186.189 36.4801 185.9 35.5539 185.828 33.7726L185.611 28.9989C185.539 27.5739 185.395 26.6476 185.178 26.1489C184.961 25.6501 184.528 25.3651 183.95 25.3651C183.372 25.3651 182.65 25.7214 181.783 26.5051C180.917 27.2889 180.483 27.9301 180.483 28.4289C180.483 28.5714 180.628 28.7851 180.845 28.9276C181.495 27.5739 182.217 26.9326 182.939 26.9326C183.372 26.9326 183.661 27.7164 183.733 29.1414L183.806 30.2101L183.95 34.0576L184.022 35.9101C184.095 37.6914 184.6 38.6176 185.467 38.6176C186.117 38.6176 186.911 38.0476 187.922 36.9789Z" fill="#897B62"/>
</g>
<defs>
<clipPath id="clip0_69_187">
<rect width="195" height="57" fill="white" transform="translate(0 0.00012207)"/>
</clipPath>
</defs>
</svg>
