<svg width="181" height="48" viewBox="0 0 181 48" fill="none" xmlns="http://www.w3.org/2000/svg">
<path d="M95.8738 47.3566C106.255 46.0697 116.27 44.4611 126.04 42.9812C137.765 41.1796 149.856 39.2493 162.558 37.8338L162.314 37.1903C149.612 38.6059 137.399 40.5362 125.674 42.3378C115.537 43.9464 105.034 45.555 94.2861 46.9062L169.153 24.1287L168.543 23.5496L93.7976 46.2627C103.69 40.7936 113.583 35.7105 123.964 30.3056C129.827 27.2815 135.933 24.193 141.918 20.9759L141.063 20.5255C135.078 23.6783 128.972 26.8311 123.109 29.8552C112.85 35.1314 103.202 40.0858 93.5533 45.4263L136.177 6.563L135.078 6.24129L92.2099 45.3619L110.53 9.26542L109.308 9.07239L90.9885 45.1689L90.9885 0L89.7672 0L89.7672 45.2332L71.3252 8.81501L70.1039 9.00804L88.668 45.4263L45.7996 6.24129L44.7004 6.563L87.8131 45.941C69.9818 37.126 52.5169 27.9249 35.9069 18.4665L35.052 18.9169C51.4177 28.1823 68.6383 37.319 86.2254 46.0054L12.4575 23.5496L11.8468 24.1287L86.4696 46.8418C63.5088 43.882 41.7692 40.7936 21.9838 37.6408L21.6174 38.2842C41.1586 41.3727 62.6538 44.3968 85.3704 47.3566L0 47.3566L0 48L90.5 48L181 48V47.3566L95.8738 47.3566Z" fill="white"/>
</svg>
