<svg width="497" height="215" viewBox="0 0 497 215" fill="none" xmlns="http://www.w3.org/2000/svg">
<path fill-rule="evenodd" clip-rule="evenodd" d="M53.5709 21.4291L50 0L46.4291 21.4291L25 25L46.4291 28.5709L47.5887 35.5299C25.1774 35.2852 11.3492 38.5446 9.28247 45.693C7.19986 52.8961 17.3241 63.1325 36.695 75.0001H31.7003H6.70027L1.50027 97.5001H1.70027C2.4336 94.3335 3.31693 91.4001 4.35027 88.7001C5.3836 86.0001 6.65027 83.6501 8.15027 81.6501C9.65027 79.6168 11.4669 78.0334 13.6003 76.9001C15.7336 75.7668 18.2669 75.2001 21.2003 75.2001H31.6539L21.3983 119.405C7.4941 125.858 0.0103279 132.284 0.572498 138.259C0.989933 142.696 5.81212 146.549 14.3529 149.773L14.3467 149.8H3.30027V150H14.3003H14.9627C48.9182 162.445 139.071 165.316 244.844 155.889C343.607 183.919 430.17 197.932 468.056 193.509L468.429 193.571L472 215L475.571 193.571L497 190L485.371 188.062C486.767 186.916 487.692 185.609 488.117 184.136C490.429 176.142 477.703 164.41 453.986 150.859C454.588 150.953 455.235 151 455.926 151C457.993 151 459.859 150.45 461.526 149.35C463.193 148.217 464.759 146.45 466.226 144.05C467.693 141.65 469.143 138.533 470.576 134.7L470.426 134.65C469.026 138.417 467.609 141.483 466.176 143.85C464.743 146.183 463.209 147.9 461.576 149C459.976 150.067 458.193 150.6 456.226 150.6C454.993 150.6 454.376 149.967 454.376 148.7C454.376 148.433 454.393 148.15 454.426 147.85C454.459 147.517 454.509 147.2 454.576 146.9L462.827 115.849C485.077 107.61 497.548 99.2211 496.828 91.5703C494.775 69.7428 386.119 62.0363 252.556 73.9408C170.39 50.6211 96.6672 37.0033 52.3943 35.6318L53.5709 28.5709L75 25L53.5709 21.4291ZM47.7557 36.5318L50 50L52.2284 36.6272C62.3962 36.9369 74.1479 37.8975 87.2306 39.4822C130.254 44.6937 187.503 56.633 249.769 74.1917C248.153 74.3386 246.534 74.4884 244.911 74.6411C243.653 74.7595 242.397 74.8791 241.144 75.0001H235.849V75.2001H239.086C180.595 80.9239 127.419 89.4642 86.1935 99.0934C84.1477 98.1858 82.1356 97.2815 80.1581 96.3809L85.8596 75.0001H69.3596V75.2001H77.6596L72.8851 93.0122C72.5522 92.8553 72.2204 92.6985 71.8897 92.5419C68.8743 91.1136 65.9525 89.6971 63.1279 88.294L66.2003 75.0001H41.2003H38.6205C33.1175 71.6824 28.3323 68.4926 24.3272 65.4614C18.9775 61.4124 15.07 57.6837 12.6968 54.3509C10.3121 51.0018 9.59195 48.2229 10.2431 45.9707C10.8943 43.7185 12.9862 41.7527 16.7903 40.1929C20.5758 38.6407 25.8702 37.5725 32.5553 37.0031C37.0407 36.6211 42.1241 36.4658 47.7557 36.5318ZM464.253 192.875L447 190L468.429 186.429L472 165L475.571 186.429L484.013 187.836C485.712 186.652 486.736 185.315 487.157 183.859C487.808 181.606 487.088 178.828 484.703 175.479C482.33 172.146 478.422 168.417 473.073 164.368C465.189 158.401 454.282 151.82 440.827 144.857C439.459 146.382 438.042 147.68 436.576 148.75C434.509 150.25 432.426 151 430.326 151C427.126 151 424.809 150.317 423.376 148.95C421.943 147.55 421.159 145.717 421.026 143.45C420.893 141.15 421.126 138.633 421.726 135.9L421.805 135.549C418.721 134.114 415.545 132.669 412.283 131.215L412.232 131.35C410.798 135.217 408.832 138.633 406.332 141.6C403.832 144.533 400.965 146.833 397.732 148.5C394.532 150.167 391.165 151 387.632 151C382.598 151 378.865 149.467 376.432 146.4C374.685 144.199 373.565 141.628 373.072 138.688C360.501 141.033 347.227 143.268 333.371 145.36L332.366 149.8H342.321V150H332.321H322.821H313.821V149.8H322.866L323.541 146.806C301.088 150.023 277.24 152.86 252.489 155.188C250.866 155.341 249.247 155.491 247.631 155.638C309.897 173.196 367.146 185.136 410.169 190.347C432.49 193.051 450.937 193.938 464.253 192.875ZM379.182 142.8C379.182 141.104 379.304 139.323 379.55 137.457C387.788 135.864 395.701 134.224 403.255 132.547C402.691 133.93 402.083 135.281 401.432 136.6C400.098 139.3 398.632 141.717 397.032 143.85C395.432 145.983 393.748 147.683 391.982 148.95C390.248 150.183 388.465 150.8 386.632 150.8C384.098 150.8 382.215 150.083 380.982 148.65C379.782 147.183 379.182 145.233 379.182 142.8ZM379.699 136.41C388.048 134.792 396.061 133.127 403.701 131.423C404.121 130.335 404.514 129.227 404.882 128.1L404.921 127.983C398.499 125.205 391.776 122.401 384.776 119.582C383.853 121.632 383.022 123.754 382.282 125.95C381.315 128.917 380.548 131.85 379.982 134.75C379.877 135.31 379.783 135.864 379.699 136.41ZM422.03 134.551C419.043 133.162 415.97 131.764 412.817 130.358C416.501 129.488 420.087 128.61 423.57 127.725L422.03 134.551ZM412.932 129.303C416.663 128.42 420.293 127.529 423.817 126.63L428.876 104.2H421.876V104H437.426L432.674 124.294C440.477 122.164 447.669 120.002 454.19 117.823L457.526 104H465.976L463.142 114.665C468.918 112.507 474.01 110.341 478.36 108.185C484.371 105.205 488.905 102.271 491.859 99.4393C494.826 96.5938 496.052 93.9981 495.832 91.664C495.613 89.3298 493.924 87.0083 490.478 84.7663C487.049 82.5351 482.046 80.498 475.585 78.6916C462.673 75.0818 444.175 72.4578 421.407 70.9277C378.167 68.0219 319.695 69.072 255.247 74.7071C256.807 75.1529 258.37 75.6021 259.935 76.0549C282.622 82.614 304.423 89.4723 324.943 96.4423L316.401 75.2001H309.321V75.0001H316.321H327.321H338.321V75.2001H327.391L336.288 100.352C340.015 101.656 343.695 102.962 347.325 104.269L370.721 75.2001H358.821V75.0001H379.821V75.2001H370.921L347.565 104.356C358.271 108.214 368.547 112.085 378.326 115.937C379.107 114.728 379.959 113.582 380.882 112.5C383.382 109.533 386.232 107.217 389.432 105.55C392.665 103.85 396.048 103 399.582 103C404.648 103 408.382 104.55 410.782 107.65C413.215 110.717 414.432 114.5 414.432 119C414.432 122.605 413.932 126.039 412.932 129.303ZM430.226 134.75L432.415 125.401C440.186 123.289 447.366 121.142 453.893 118.976C452.996 122.256 451.807 125.547 450.326 128.85C448.593 132.683 446.676 136.2 444.576 139.4C443.471 141.093 442.362 142.609 441.248 143.949C437.522 142.022 433.602 140.066 429.501 138.087C429.724 137.006 429.965 135.894 430.226 134.75ZM252.396 154.193C249.902 154.427 247.417 154.655 244.94 154.876C242.548 154.197 240.148 153.51 237.742 152.814C234.519 151.882 231.313 150.944 228.126 150H232.349L237.757 130.313C238.056 129.344 238.421 128.256 238.849 127.05C239.118 126.323 239.462 125.641 239.88 125.004C240.209 125.214 240.666 125.396 241.249 125.55C241.883 125.717 242.583 125.8 243.349 125.8C245.016 125.8 246.383 125.3 247.449 124.3C248.195 123.623 248.886 122.77 249.524 121.741C250.057 121.98 250.465 122.316 250.749 122.75C251.383 123.717 251.649 124.967 251.549 126.5C251.449 128.033 251.166 129.65 250.699 131.35C250.266 133.017 249.899 134.583 249.599 136.05L248.449 141.5C248.383 141.8 248.333 142.183 248.299 142.65C248.266 143.083 248.249 143.433 248.249 143.7C248.249 146.2 248.799 148.05 249.899 149.25C250.999 150.417 252.716 151 255.049 151C258.849 151 262.233 149.5 265.199 146.5C268.166 143.5 270.716 139.25 272.849 133.75L272.699 133.65C271.266 137.35 269.683 140.433 267.949 142.9C266.216 145.367 264.416 147.233 262.549 148.5C260.683 149.733 258.816 150.35 256.949 150.35C255.616 150.35 254.949 149.717 254.949 148.45V148.05C254.983 147.85 255.016 147.7 255.049 147.6L256.799 137.9C257.233 134.6 257.333 131.867 257.099 129.7C256.866 127.533 256.333 125.833 255.499 124.6C254.699 123.333 253.633 122.433 252.299 121.9C251.546 121.591 250.72 121.372 249.821 121.242C250.02 120.896 250.212 120.532 250.399 120.15C251.266 118.383 252.149 116.367 253.049 114.1C254.349 110.867 255.883 108.25 257.649 106.25C259.449 104.217 261.616 103.2 264.149 103.2C265.616 103.2 266.866 103.567 267.899 104.3C268.933 105 269.733 105.983 270.299 107.25C270.743 108.241 271.013 109.355 271.109 110.591C270.994 110.18 270.807 109.8 270.549 109.45C270.083 108.817 269.466 108.317 268.699 107.95C267.966 107.583 267.166 107.4 266.299 107.4C264.866 107.4 263.666 107.833 262.699 108.7C261.733 109.533 261.249 110.667 261.249 112.1C261.249 113.733 261.766 114.983 262.799 115.85C263.833 116.683 264.966 117.1 266.199 117.1C267.466 117.1 268.633 116.6 269.699 115.6C270.799 114.6 271.349 113.283 271.349 111.65C271.349 109.917 271.049 108.4 270.449 107.1C269.883 105.8 269.066 104.8 267.999 104.1C266.933 103.367 265.649 103 264.149 103C261.583 103 259.416 103.983 257.649 105.95C255.883 107.883 254.283 110.567 252.849 114C251.949 116.133 251.099 118.083 250.299 119.85C250.078 120.33 249.847 120.784 249.605 121.212C249.017 121.137 248.398 121.1 247.749 121.1C246.449 121.1 245.133 121.283 243.799 121.65C242.499 122.017 241.283 122.9 240.149 124.3C239.649 124.918 239.188 125.699 238.765 126.642L252.926 75.0856C255.164 75.7217 257.408 76.365 259.658 77.0155C282.631 83.6578 304.694 90.6062 325.435 97.6658L331.321 112.3L323.776 145.762C301.232 148.998 277.271 151.852 252.396 154.193ZM340.721 112.9L333.608 144.312C347.329 142.237 360.477 140.021 372.931 137.697C372.831 136.844 372.782 135.962 372.782 135.05C372.782 130.683 373.498 126.567 374.932 122.7C375.73 120.595 376.682 118.628 377.786 116.8C367.971 112.935 357.655 109.052 346.904 105.181L340.721 112.9ZM75.9937 158.902C119.234 161.807 177.705 160.757 242.154 155.122C240.593 154.677 239.03 154.227 237.465 153.775C229.306 151.416 221.261 149.018 213.349 146.59C212.393 147.743 211.369 148.663 210.278 149.35C208.511 150.45 206.394 151 203.928 151C201.328 151 199.361 150.483 198.028 149.45C196.728 148.417 196.078 146.833 196.078 144.7C196.078 143.967 196.144 143.333 196.278 142.8C196.405 142.26 196.532 141.781 196.659 141.362C190.912 139.525 185.247 137.675 179.67 135.815L176.278 150H168.028L172.034 133.244C165.593 131.053 159.278 128.852 153.103 126.646L147.683 147C147.55 147.5 147.483 148.033 147.483 148.6C147.483 149.167 147.633 149.633 147.933 150C148.266 150.4 148.8 150.6 149.533 150.6C151.466 150.6 153.216 150.067 154.783 149C156.383 147.9 157.9 146.183 159.333 143.85C160.766 141.483 162.183 138.417 163.583 134.65L163.733 134.7C162.3 138.533 160.85 141.65 159.383 144.05C157.95 146.45 156.383 148.217 154.683 149.35C152.983 150.45 151.016 151 148.783 151C146.45 151 144.733 150.367 143.633 149.1C142.533 147.833 141.983 146.2 141.983 144.2C141.983 143.633 142 143.133 142.033 142.7C142.066 142.233 142.116 141.833 142.183 141.5L143.308 135.289C142.76 136.664 142.152 138.001 141.483 139.3C140.35 141.533 139.033 143.533 137.533 145.3C136.066 147.067 134.45 148.467 132.683 149.5C130.95 150.5 129.066 151 127.033 151C122.566 151 119.333 149.583 117.333 146.75C115.366 143.883 114.383 139.883 114.383 134.75C114.383 130.917 115.083 127.133 116.483 123.4C117.658 120.24 119.172 117.326 121.027 114.659C114.15 111.966 107.513 109.282 101.138 106.616C101.861 107.738 102.302 109.066 102.46 110.6C102.693 112.867 102.426 115.35 101.66 118.05L93.4096 146.85C93.343 147.117 93.2763 147.4 93.2096 147.7C93.1763 148 93.1596 148.283 93.1596 148.55C93.1596 149.883 93.843 150.55 95.2096 150.55C98.0763 150.55 100.593 149.317 102.76 146.85C104.96 144.383 107.126 140.317 109.26 134.65L109.41 134.7C107.976 138.533 106.526 141.65 105.06 144.05C103.626 146.45 102.01 148.217 100.21 149.35C98.443 150.45 96.3263 151 93.8596 151C91.5263 151 89.643 150.467 88.2096 149.4C86.7763 148.3 86.0596 146.8 86.0596 144.9C86.0596 144.367 86.1263 143.767 86.2596 143.1C86.4263 142.4 86.6263 141.633 86.8596 140.8L93.1596 119.2C93.993 116.3 94.5763 113.717 94.9096 111.45C95.2763 109.183 95.1763 107.417 94.6096 106.15C94.0763 104.85 92.8763 104.2 91.0096 104.2C89.243 104.2 87.3263 105.117 85.2596 106.95C83.2263 108.783 81.193 111.25 79.1596 114.35C77.1596 117.45 75.293 120.933 73.5596 124.8C72.1923 127.91 71.0191 131.085 70.0399 134.324L65.8596 150H57.6096L69.8991 104.152C54.9778 108.064 42.0957 112.103 31.6519 116.157L23.8467 149.8H34.8003V150H23.8003H18.0331C19.2322 150.389 20.4934 150.768 21.8157 151.138C34.7278 154.748 53.2258 157.372 75.9937 158.902ZM70.7195 131.776L78.6803 101.923C81.1059 101.326 83.5778 100.733 86.0947 100.144C88.2886 101.116 90.521 102.092 92.7906 103.071C90.8393 103.2 88.929 103.943 87.0596 105.3C84.993 106.767 83.0263 108.733 81.1596 111.2C79.293 113.667 77.5763 116.383 76.0096 119.35C74.4763 122.317 73.1263 125.317 71.9596 128.35C71.5059 129.53 71.0926 130.672 70.7195 131.776ZM78.9742 100.821C80.8175 100.369 82.6873 99.9191 84.583 99.4716C83.0004 98.7658 81.4382 98.0621 79.8968 97.3607L78.9742 100.821ZM95.6539 103.212C92.9559 102.059 90.3089 100.91 87.7148 99.7663C129.983 89.976 184.635 81.3313 244.623 75.6727L224.952 149.057C221.277 147.96 217.628 146.856 214.007 145.746C214.392 145.221 214.766 144.656 215.128 144.05C216.594 141.65 218.044 138.533 219.478 134.7L219.328 134.65C217.503 139.496 215.655 143.171 213.782 145.677C210.708 144.734 207.654 143.787 204.621 142.835L211.678 118.05C212.444 115.35 212.711 112.867 212.478 110.6C212.244 108.333 211.394 106.517 209.928 105.15C208.494 103.75 206.328 103.05 203.428 103.05C201.294 103.05 199.194 103.817 197.128 105.35C195.061 106.85 193.078 108.85 191.178 111.35C189.278 113.85 187.528 116.6 185.928 119.6C184.361 122.567 183.011 125.55 181.878 128.55C181.306 130.046 180.807 131.478 180.38 132.846L187.278 104H171.778V104.2H178.978L172.267 132.267C165.834 130.079 159.528 127.88 153.361 125.677L159.133 104H150.683L146.883 119.75L146.768 120.46C146.845 119.48 146.883 118.527 146.883 117.6C146.883 115.167 146.7 112.833 146.333 110.6C146 108.367 145.25 106.55 144.083 105.15C142.916 103.717 141.133 103 138.733 103C135.8 103 132.883 103.933 129.983 105.8C127.116 107.633 124.5 110.083 122.133 113.15C121.962 113.372 121.794 113.595 121.628 113.82C113.992 110.833 106.653 107.856 99.6403 104.903C98.6327 104.032 97.3039 103.469 95.6539 103.212ZM252.625 75.0001H251.936L252.46 74.9533L252.625 75.0001ZM31.9251 114.979C42.436 110.937 55.327 106.923 70.197 103.041L72.6221 93.9937C69.2666 92.4135 66.023 90.8466 62.8964 89.2956L61.0003 97.5001H60.8003C61.5106 94.3894 61.9239 91.5126 62.0403 88.8698C54.1167 84.9191 46.9582 81.0726 40.6503 77.3707L31.9251 114.979ZM19.0409 121.644C19.7132 121.311 20.4033 120.977 21.1109 120.644L14.5809 148.79C11.4997 147.62 8.93922 146.375 6.92251 145.063C3.47619 142.821 1.7877 140.5 1.5681 138.165C1.3485 135.831 2.57436 133.236 5.54204 130.39C8.49529 127.558 13.0297 124.624 19.0409 121.644ZM449.375 148.277C448.476 147.157 448.026 145.982 448.026 144.75C448.026 144.35 448.059 143.85 448.126 143.25C448.226 142.617 448.343 142.033 448.476 141.5L453.158 122.102C452.793 123.194 452.382 124.326 451.926 125.5C450.759 128.5 449.376 131.5 447.776 134.5C446.209 137.5 444.476 140.25 442.576 142.75C442.222 143.21 441.864 143.654 441.503 144.081C444.232 145.496 446.858 146.895 449.375 148.277ZM440.581 144.73C436.996 142.878 433.231 140.999 429.296 139.098C429.088 140.146 428.898 141.164 428.726 142.15C428.359 144.45 428.409 146.317 428.876 147.75C429.376 149.183 430.626 149.9 432.626 149.9C434.326 149.9 436.226 148.95 438.326 147.05C439.08 146.356 439.831 145.583 440.581 144.73ZM405.233 127.028C406.063 124.426 406.713 121.85 407.182 119.3C407.748 116.4 408.032 113.717 408.032 111.25C408.032 108.783 407.432 106.833 406.232 105.4C405.032 103.967 403.148 103.25 400.582 103.25C398.782 103.25 396.998 103.883 395.232 105.15C393.465 106.383 391.782 108.067 390.182 110.2C388.582 112.333 387.115 114.75 385.782 117.45C385.582 117.855 385.386 118.262 385.194 118.672C392.154 121.476 398.843 124.265 405.233 127.028ZM346.662 105.093C343.386 103.915 340.07 102.737 336.716 101.562L340.621 112.6L346.662 105.093ZM40.8871 76.35C47.125 80.0208 54.2138 83.8402 62.0718 87.7678C62.079 87.2006 62.0718 86.6447 62.0503 86.1001C61.9169 82.7335 60.9669 80.0835 59.2003 78.1501C57.4336 76.1834 54.6003 75.2001 50.7003 75.2001H41.1539L40.8871 76.35ZM127.139 117.03C126.646 118.129 126.178 119.269 125.733 120.45C124.566 123.517 123.65 126.6 122.983 129.7C122.316 132.8 121.983 135.65 121.983 138.25C121.983 142.317 122.6 145.317 123.833 147.25C125.1 149.15 126.75 150.1 128.783 150.1C130.783 150.1 132.666 149.417 134.433 148.05C136.233 146.65 137.883 144.8 139.383 142.5C140.883 140.167 142.166 137.583 143.233 134.75C144.333 131.883 145.183 128.967 145.783 126C145.911 125.369 146.025 124.746 146.125 124.13C139.627 121.764 133.293 119.395 127.139 117.03ZM146.279 123.122C139.873 120.788 133.628 118.452 127.558 116.12C128.239 114.672 128.964 113.299 129.733 112C131.233 109.433 132.833 107.383 134.533 105.85C136.233 104.283 137.95 103.5 139.683 103.5C141.55 103.5 142.983 104.133 143.983 105.4C145.016 106.667 145.716 108.367 146.083 110.5C146.483 112.633 146.683 115 146.683 117.6C146.683 119.366 146.548 121.206 146.279 123.122ZM179.924 134.846C185.51 136.709 191.186 138.563 196.943 140.404L203.228 119.2C203.994 116.6 204.578 114.167 204.978 111.9C205.378 109.6 205.328 107.733 204.828 106.3C204.328 104.867 203.111 104.15 201.178 104.15C199.444 104.15 197.528 105.117 195.428 107.05C193.328 108.95 191.228 111.5 189.128 114.7C187.061 117.867 185.161 121.367 183.428 125.2C182.002 128.415 180.834 131.63 179.924 134.846ZM204.347 143.797L203.478 146.85C203.378 147.15 203.294 147.467 203.228 147.8C203.194 148.1 203.178 148.383 203.178 148.65C203.178 149.183 203.311 149.633 203.578 150C203.844 150.367 204.344 150.55 205.078 150.55C208.078 150.55 210.661 149.317 212.828 146.85C212.877 146.794 212.927 146.738 212.977 146.68C213.023 146.627 213.069 146.573 213.115 146.518C210.174 145.615 207.251 144.708 204.347 143.797ZM246.999 121.3C247.935 121.3 248.715 121.421 249.34 121.664C248.779 122.589 248.165 123.385 247.499 124.05C246.433 125.083 245.049 125.6 243.349 125.6C242.483 125.6 241.783 125.517 241.249 125.35C240.767 125.199 240.353 125.021 240.007 124.816C240.445 124.182 240.959 123.593 241.549 123.05C242.816 121.883 244.633 121.3 246.999 121.3Z" fill="#897B62"/>
</svg>
