<svg width="195" height="58" viewBox="0 0 195 58" fill="none" xmlns="http://www.w3.org/2000/svg">
<g clip-path="url(#clip0_183_516)">
<path fill-rule="evenodd" clip-rule="evenodd" d="M15.4963 32.1385L19.7553 28.1394C20.1658 29.4556 20.371 30.8224 20.371 32.1385C20.371 36.5932 18.6777 40.1368 15.3424 42.8197C12.0071 45.5027 7.54292 46.8188 2.0525 46.8188H0C0.769686 42.8703 1.2315 40.238 1.43675 38.8712L3.74581 18.3694C4.46418 12.2948 6.10618 7.89076 8.77442 5.15719C11.6992 2.06927 15.2911 0.5 19.4474 0.5C23.3985 0.5 26.2206 2.42362 28.0166 6.22025L23.8603 9.35879C22.988 4.95471 20.525 2.77797 16.5226 2.77797C14.0596 2.77797 12.161 3.73979 10.9295 5.61279C9.69804 7.48579 8.82574 10.675 8.31261 15.1297L5.07993 43.6803H5.90093C13.136 43.6803 16.7792 41.3011 16.7792 36.5932C16.7278 35.1252 16.3173 33.6066 15.4963 32.1385ZM20.0632 25.8615L15.8042 29.8606C15.3937 28.5444 15.1885 27.1776 15.1885 25.8615C15.1885 21.4068 16.8818 17.8632 20.2171 15.1803C23.5524 12.4973 28.0166 11.1812 33.507 11.1812H35.5595C34.7898 15.1297 34.328 17.762 34.1228 19.1288L31.8137 39.6306C31.0953 45.7052 29.4533 50.1092 26.7851 52.8428C23.809 55.9307 20.2171 57.5 16.0608 57.5C12.1097 57.5 9.28755 55.5764 7.49161 51.7798L11.6479 48.6412C12.5202 53.0453 14.9832 55.222 18.9856 55.222C21.4486 55.222 23.3471 54.2602 24.5786 52.3872C25.8101 50.5142 26.6825 47.325 27.1956 42.8703L30.4283 14.2691H29.6073C22.3722 14.2691 18.729 16.6483 18.729 21.3561C18.8317 22.8748 19.2422 24.3428 20.0632 25.8615ZM87.8222 28.2875L85.6556 30.3538C85.2945 29.3563 85.0778 28.43 85.0778 27.575C85.0778 25.3663 86.0889 23.5138 88.0389 22.16C89.7 21.02 92.5167 20.45 96.4889 20.45C97.1389 20.45 97.7889 20.45 98.2945 20.5213C99.7389 20.5925 100.461 20.6638 100.461 20.6638H101.4C100.678 21.7325 100.317 24.0125 100.317 27.3613V28.0738L100.389 29.6413C100.389 31.4938 100.606 33.4175 101.111 35.4125C101.328 36.1963 101.472 36.6238 101.617 36.9088C101.761 37.1225 102.122 37.265 102.556 37.265C102.989 37.265 103.567 37.1225 104.144 36.8375C104.217 36.98 104.217 37.1225 104.217 37.1938C104.217 37.4075 104.072 37.6213 103.711 37.7638L103.061 38.0488L99.6667 39.4738C98.9445 37.1938 98.4389 34.7713 98.2945 32.2775L97.2834 32.99H92.6611C91.7945 35.1275 90.6389 36.6238 89.1945 37.4788L92.0111 37.6213L90.4945 39.1888L85.0056 38.975L86.8111 37.3363L88.1833 37.4075C88.8333 36.98 89.3389 36.3388 89.7722 35.4838C90.2056 34.7 90.8556 33.0613 91.7222 30.71L92.1556 29.57C93.0222 27.29 93.8167 25.6513 94.5389 24.6538C95.3334 23.6563 96.3445 22.8013 97.6445 22.0888C96.2 21.8038 94.6833 21.6613 93.0945 21.6613C89.05 21.6613 87.0278 23.015 87.0278 25.7225C87.1722 26.6488 87.3889 27.5038 87.8222 28.2875ZM98.0778 27.575C98.0778 28.5574 98.1478 29.8161 98.2879 31.3513H93.2389L93.5278 30.5675C93.5639 30.4963 93.6181 30.336 93.7083 30.0689L93.7084 30.0687L93.7084 30.0686L93.7085 30.0683L93.7087 30.0678L93.7089 30.0673C93.7991 29.8002 93.9254 29.4266 94.1056 28.9288C95.2611 25.58 96.7056 23.3713 98.5111 22.3025C98.3667 22.8725 98.2945 23.7275 98.2223 24.7963L98.0778 26.3638V27.575ZM51.9278 30.425L54.1667 28.2875C53.7334 27.5038 53.5167 26.72 53.5167 25.9363C53.5167 23.4425 55.3945 22.2313 59.2222 22.2313H59.6556L57.9945 37.265C57.7056 39.6163 57.2722 41.255 56.6222 42.2525C55.9722 43.25 54.9611 43.7488 53.6611 43.7488C51.5667 43.7488 50.2667 42.5375 49.8334 40.2575L47.6667 41.8963C48.6056 43.8913 50.05 44.8888 52.1445 44.8888C54.3111 44.8888 56.1889 44.105 57.7778 42.4663C59.15 40.97 60.0167 38.69 60.3778 35.4838L61.6056 24.7963C61.6778 24.0838 61.8945 22.6588 62.3278 20.5925H61.2445C58.3556 20.5925 55.9722 21.305 54.2389 22.73C52.5056 24.155 51.6389 26.0075 51.6389 28.3588C51.6389 29 51.7111 29.7125 51.9278 30.425ZM64.7111 30.425L66.95 28.2875C66.5167 27.5038 66.3 26.72 66.3 25.9363C66.3 23.4425 68.1778 22.2313 72.0056 22.2313H72.4389L70.7778 37.265C70.4889 39.6163 70.0556 41.255 69.4056 42.2525C68.7556 43.25 67.7445 43.7488 66.4445 43.7488C64.35 43.7488 63.05 42.5375 62.6167 40.2575L60.45 41.8963C61.3889 43.8913 62.8334 44.8888 64.9278 44.8888C67.0945 44.8888 68.9722 44.105 70.5611 42.4663C71.9334 40.97 72.8 38.69 73.1611 35.4838L74.3889 24.7963C74.4611 24.0838 74.6778 22.6588 75.1111 20.5925H74.0278C71.1389 20.5925 68.7556 21.305 67.0222 22.73C65.2889 24.155 64.4222 26.0075 64.4222 28.3588C64.4222 29 64.4945 29.7125 64.7111 30.425ZM113.028 28.0025L114.617 26.15C114.111 25.9363 113.533 25.7938 112.667 25.865C110.717 25.865 108.911 26.7913 107.322 28.715C105.733 30.6388 104.939 32.7763 104.939 35.1275C104.939 36.3388 105.3 37.265 105.878 38.0488C106.456 38.8325 107.25 39.1888 108.189 39.1888C109.2 39.1888 110.283 38.7613 111.439 37.835C112.667 36.9088 113.244 36.125 113.244 35.3413C113.244 35.1275 113.172 34.9138 112.956 34.7C112.233 36.4813 111.15 37.3363 109.778 37.3363C108.983 37.3363 108.333 36.98 107.828 36.1963C107.322 35.4125 107.106 34.415 107.106 33.2038C107.106 31.4225 107.394 30.0688 108.117 29.0713C108.767 28.0738 109.706 27.575 110.933 27.575C111.583 27.575 112.306 27.7175 113.028 28.0025ZM125.378 26.15L123.789 28.0025C123.067 27.7175 122.344 27.575 121.694 27.575C120.467 27.575 119.528 28.0738 118.878 29.0713C118.156 30.0688 117.867 31.4225 117.867 33.2038C117.867 34.415 118.083 35.4125 118.589 36.1963C119.094 36.98 119.744 37.3363 120.539 37.3363C121.911 37.3363 122.994 36.4813 123.717 34.7C123.933 34.9138 124.006 35.1275 124.006 35.3413C124.006 36.125 123.428 36.9088 122.2 37.835C121.044 38.7613 119.961 39.1888 118.95 39.1888C118.011 39.1888 117.217 38.8325 116.639 38.0488C116.061 37.265 115.7 36.3388 115.7 35.1275C115.7 32.7763 116.494 30.6388 118.083 28.715C119.672 26.7913 121.478 25.865 123.428 25.865C124.294 25.7938 124.872 25.9363 125.378 26.15ZM135.272 35.0563C135.272 34.8425 135.128 34.6288 134.911 34.4863C133.972 36.41 132.672 37.3363 131.156 37.55C129.639 37.55 128.772 36.41 128.556 34.2725C130.433 33.7738 132.022 32.9188 133.322 31.6363C134.622 30.3538 135.272 29.0713 135.272 27.7175C135.272 26.5063 134.694 25.9363 133.611 25.9363C132.022 25.9363 130.506 26.9338 128.917 29.0713C127.328 31.2088 126.533 33.275 126.533 35.3413C126.533 36.4813 126.894 37.4075 127.472 38.12C128.05 38.8325 128.844 39.1888 129.783 39.1888C131.3 39.1888 132.817 38.2625 134.406 36.4813C134.983 35.84 135.272 35.3413 135.272 35.0563ZM128.728 32.5352C128.673 32.521 128.616 32.5061 128.556 32.4913C128.772 31.0663 129.133 29.855 129.711 29C130.361 28.0738 131.083 27.6463 131.878 27.6463C132.961 27.6463 133.539 28.145 133.539 29.2138C133.539 30.14 133.106 30.9238 132.239 31.6363C131.372 32.2775 130.433 32.6338 129.278 32.6338C129.106 32.6338 128.935 32.5892 128.728 32.5352ZM136.139 38.405L138.017 36.9088C138.739 37.6925 139.606 38.0488 140.689 38.0488C141.989 38.0488 142.639 37.4075 142.639 36.1963C142.639 35.4838 142.061 34.5575 140.833 33.275L140.039 32.4913C138.883 31.28 138.306 30.3538 138.306 29.6413C138.306 28.5725 138.739 27.7175 139.678 27.005C140.617 26.2925 141.7 25.9363 143.072 25.9363C143.794 25.9363 144.589 26.0788 145.456 26.3638L143.794 27.86C143.072 27.3613 142.35 27.0763 141.483 27.0763C140.472 27.0763 139.967 27.5038 139.967 28.2875C139.967 28.8575 140.544 29.7125 141.628 30.8525L142.494 31.7788C143.722 33.0613 144.372 34.13 144.372 34.9138C144.372 36.0538 143.794 37.0513 142.711 37.9063C141.628 38.7613 140.328 39.1888 138.883 39.1888C138.017 39.1175 137.078 38.9038 136.139 38.405ZM148.056 36.9088L146.178 38.405C147.044 38.9038 147.983 39.1175 148.922 39.1888C150.367 39.1888 151.667 38.7613 152.75 37.9063C153.833 37.0513 154.411 36.0538 154.411 34.9138C154.411 34.13 153.761 33.0613 152.533 31.7788L151.667 30.8525C150.583 29.7125 150.006 28.8575 150.006 28.2875C150.006 27.5038 150.511 27.0763 151.522 27.0763C152.389 27.0763 153.111 27.3613 153.833 27.86L155.494 26.3638C154.628 26.0788 153.833 25.9363 153.111 25.9363C151.739 25.9363 150.656 26.2925 149.717 27.005C148.778 27.7175 148.344 28.5725 148.344 29.6413C148.344 30.3538 148.922 31.28 150.078 32.4913L150.872 33.275C152.1 34.5575 152.678 35.4838 152.678 36.1963C152.678 37.4075 152.028 38.0488 150.728 38.0488C149.644 38.0488 148.778 37.6925 148.056 36.9088ZM160.044 39.1175C157.95 39.1175 156.939 37.7638 156.939 35.0563C156.939 32.9188 157.733 30.7813 159.322 28.7863C160.911 26.7913 162.572 25.7938 164.306 25.7938C166.4 25.7938 167.411 27.1475 167.411 29.855C167.411 32.0638 166.617 34.13 165.028 36.125C163.511 38.12 161.778 39.1175 160.044 39.1175ZM161.706 37.6213C162.789 37.6213 163.656 37.0513 164.378 35.9113C165.1 34.7713 165.461 33.3463 165.461 31.565C165.461 28.715 164.594 27.3613 162.789 27.3613C161.778 27.3613 160.839 27.9313 160.189 29.0713C159.467 30.2113 159.106 31.6363 159.106 33.4175C159.033 36.1963 159.972 37.6213 161.706 37.6213ZM179.544 25.7938C177.594 25.7938 175.572 27.7175 173.55 31.4938L173.622 30.425L173.767 29.285L173.839 28.3588C173.911 27.9313 173.911 27.575 173.911 27.3613C173.911 26.3638 173.55 25.865 172.756 25.865C172.178 25.865 171.383 26.2925 170.372 27.2188C169.361 28.145 168.856 28.8575 168.856 29.4275C168.856 29.57 169 29.7838 169.217 29.9263C169.939 28.43 170.661 27.6463 171.383 27.6463M179.544 25.7938C180.05 25.7938 180.556 25.9363 181.061 26.15L179.544 25.7938ZM181.061 26.15L179.111 28.2163L181.061 26.15ZM179.111 28.2163C178.822 28.0738 178.461 28.0025 177.956 28.0025L179.111 28.2163ZM177.956 28.0025C177.017 28.0025 176.006 28.7863 174.922 30.2825L177.956 28.0025ZM174.922 30.2825C173.839 31.7788 173.261 33.4175 173.044 35.0563L174.922 30.2825ZM173.044 35.0563L172.683 38.3338L173.044 35.0563ZM172.683 38.3338L170.661 39.0463L172.683 38.3338ZM170.661 39.0463L170.733 38.6188L170.661 39.0463ZM170.733 38.6188L170.806 37.7638L170.733 38.6188ZM170.806 37.7638L170.95 36.9088L170.806 37.7638ZM170.95 36.9088L171.672 30.4963L170.95 36.9088ZM171.672 30.4963L171.744 29.7838L171.672 30.4963ZM171.744 29.7838C171.817 29.2851 171.817 28.7864 171.817 28.5013L171.744 29.7838ZM190.811 33.3463C189.872 34.985 188.933 36.41 187.922 37.4788C186.911 38.5475 186.117 39.1175 185.467 39.1175C184.6 39.1175 184.095 38.1913 184.022 36.41L183.95 34.5575L183.806 30.71L183.733 29.6413C183.661 28.2163 183.372 27.4325 182.939 27.4325C182.217 27.4325 181.495 28.0738 180.845 29.4275C180.628 29.285 180.483 29.0713 180.483 28.9288C180.483 28.43 180.917 27.7888 181.783 27.005C182.65 26.2213 183.372 25.865 183.95 25.865C184.528 25.865 184.961 26.15 185.178 26.6488C185.395 27.1475 185.539 28.0738 185.611 29.4988L185.828 34.2725C185.9 36.0538 186.189 36.98 186.695 36.98C187.417 36.98 188.356 36.125 189.439 34.4863C190.522 32.8475 191.245 31.1375 191.533 29.57L192.039 26.7913L194.495 25.9363C194.206 26.72 193.844 27.9313 193.556 29.57L191.75 38.6188C191.028 42.1813 189.945 44.8175 188.428 46.5275C186.189 49.0213 183.517 50.3038 180.556 50.3038C179.906 50.3038 179.256 50.1613 178.461 49.8763L180.122 48.0238C180.989 48.38 181.856 48.5938 182.795 48.5938C184.672 48.5938 186.117 47.9525 187.056 46.7413C187.995 45.53 188.789 43.3213 189.439 40.0438L190.811 33.3463Z" fill="white"/>
</g>
<defs>
<clipPath id="clip0_183_516">
<rect width="195" height="57" fill="white" transform="translate(0 0.5)"/>
</clipPath>
</defs>
</svg>
