<svg width="98" height="48" viewBox="0 0 98 48" fill="none" xmlns="http://www.w3.org/2000/svg">
<path d="M51.8523 47.3566C57.3621 46.0697 62.6774 44.4611 67.8631 42.9812C74.0859 41.1796 80.5032 39.2493 87.2446 37.8338L87.115 37.1903C80.3736 38.6059 73.8915 40.5362 67.6686 42.3378C62.2885 43.9464 56.7139 45.555 51.0096 46.9062L90.7449 24.1287L90.4208 23.5496L50.7504 46.2627C56.0009 40.7936 61.2514 35.7105 66.7612 30.3056C69.8726 27.2815 73.1136 24.193 76.2898 20.9759L75.8361 20.5255C72.6599 23.6783 69.4188 26.8311 66.3074 29.8552C60.8624 35.1314 55.7416 40.0858 50.6207 45.4263L73.2433 6.563L72.6599 6.24129L49.9077 45.3619L59.6308 9.26542L58.9826 9.07239L49.2595 45.1689L49.2595 0L48.6113 0L48.6113 45.2332L38.8233 8.81501L38.1751 9.00804L48.0279 45.4263L25.2757 6.24129L24.6923 6.563L47.5741 45.941C38.1102 37.126 28.8408 27.9249 20.0252 18.4665L19.5714 18.9169C28.2574 28.1823 37.3972 37.319 46.7314 46.0054L7.57952 23.5496L7.25542 24.1287L46.8611 46.8418C34.6747 43.882 23.1366 40.7936 12.6356 37.6408L12.4411 38.2842C22.8125 41.3727 34.221 44.3968 46.2777 47.3566L0.967773 47.3566L0.967773 48L49.0002 48L97.0326 48V47.3566L51.8523 47.3566Z" fill="#897B62"/>
</svg>
